<?xml version="1.0" encoding="UTF-8"?>
<svg version="1.1" viewBox="0 0 700 700" xmlns="http://www.w3.org/2000/svg">
 <path d="m320.6 400.17 87.965 113.16h-268.57c-6.1875 0-12.125-2.457-16.5-6.832s-6.832-10.312-6.832-16.5v-37.102l137.9-137.67 65.566 84.465zm262.73-330.17v200.2l-76.766-76.766c-4.4023-4.3672-10.363-6.8047-16.566-6.7656-6.4922 0.26172-12.582 3.2227-16.801 8.1641l-133.23 155.17-64.863-84.234c-4.0977-5.3516-10.309-8.668-17.035-9.0977-6.6836-0.42969-13.227 2.0352-17.965 6.7656l-123.43 123.67v-317.1c0-6.1875 2.457-12.125 6.832-16.5s10.312-6.832 16.5-6.832h420c6.1875 0 12.125 2.457 16.5 6.832s6.832 10.312 6.832 16.5zm-163.33 105c0-15.473-6.1445-30.309-17.086-41.246-10.938-10.941-25.777-17.086-41.246-17.086-15.473 0-30.309 6.1445-41.25 17.086-10.938 10.938-17.086 25.773-17.086 41.246s6.1484 30.309 17.086 41.246c10.941 10.941 25.777 17.086 41.25 17.086 15.469 0 30.309-6.1445 41.246-17.086 10.941-10.938 17.086-25.773 17.086-41.246zm-50.867 211.63 97.535 126.7h93.332c6.1875 0 12.125-2.457 16.5-6.832s6.832-10.312 6.832-16.5v-153.77l-91.934-91.934z"/></svg>
